<!-- sample rectangle -->
<svg width="76" height="67" viewBox="0 0 76 67" fill="none" xmlns="http://www.w3.org/2000/svg">
<path d="M72.3666 65.0136C72.377 65.7902 73.015 66.4113 73.7916 66.4009C74.5682 66.3905 75.1893 65.7525 75.1788 64.9759L72.3666 65.0136ZM72.9941 7L74.4003 6.98112L74.3814 5.575L72.9753 5.59388L72.9941 7ZM7.89932 0.373204C3.75756 0.428806 0.445073 3.83144 0.500674 7.9732C0.556276 12.115 3.95891 15.4275 8.10067 15.3719C12.2424 15.3162 15.5549 11.9136 15.4993 7.77185C15.4437 3.63009 12.0411 0.317602 7.89932 0.373204ZM75.1788 64.9759L74.4003 6.98112L71.588 7.01888L72.3666 65.0136L75.1788 64.9759ZM72.9753 5.59388L7.98112 6.4664L8.01888 9.27865L73.013 8.40612L72.9753 5.59388Z" fill="#EB4545"/>
</svg>
